<svg width="48" height="48" viewBox="0 0 48 48" fill="none" xmlns="http://www.w3.org/2000/svg">
<rect opacity="0.12" width="48" height="48" rx="12" fill="#5669FF"/>
<g clip-path="url(#clip0_813_2)">
<path d="M34.1428 17.9009L34.8972 17.1465L35.2937 17.55C35.3937 17.65 35.4937 17.7 35.6437 17.7C35.7937 17.7 35.8937 17.65 35.9936 17.55L36.4436 17.15C37.1936 16.35 37.1936 15.1 36.4436 14.35L35.6936 13.6C34.8936 12.85 33.6436 12.85 32.8937 13.6L32.4936 14C32.2937 14.2 32.2937 14.5 32.4936 14.7L32.8157 15.0279L32.0373 15.8063C30.1915 14.3448 27.9437 13.3725 25.4937 13.0877V12H26.4937C26.7937 12 26.9937 11.8 26.9937 11.5V9.49997C26.9937 9.19998 26.7937 9 26.4937 9H21.4937C21.1938 9 20.9938 9.19998 20.9938 9.49997V11.5C20.9938 11.8 21.1938 12 21.4937 12H22.4938V13.0877C20.0315 13.3739 17.7734 14.3548 15.9224 15.8285L15.1438 15.05L15.4938 14.7C15.6937 14.5 15.6937 14.2 15.4938 14L15.1438 13.6C14.3938 12.85 13.1438 12.85 12.3938 13.6L11.5938 14.4C10.8438 15.15 10.8438 16.4 11.5938 17.15L11.9938 17.55C12.0938 17.65 12.1938 17.7 12.3438 17.7C12.4438 17.7 12.5938 17.65 12.6438 17.55L13.0438 17.15L13.8223 17.9286C12.0539 20.1499 10.9938 22.957 10.9938 26C10.9938 29.5508 12.4173 32.7605 14.7171 35.1026C14.7382 35.1368 14.7634 35.1696 14.7938 35.2C14.8288 35.235 14.864 35.2636 14.9012 35.2863C17.25 37.5851 20.4631 39 23.9937 39C27.5327 39 30.7527 37.5785 33.103 35.2701C33.1356 35.2503 33.1665 35.2272 33.1938 35.2C33.2241 35.1697 33.2493 35.1368 33.2704 35.1026C35.5703 32.7605 36.9938 29.5508 36.9938 26C36.9937 22.9443 35.9246 20.1266 34.1428 17.9009ZM34.9437 14.3L35.6937 15.05C36.0937 15.4 36.0937 16 35.6937 16.4L35.6437 16.45L33.5437 14.35C33.9437 13.95 34.5437 13.95 34.9437 14.3ZM34.9937 26.5H35.9824C35.8609 29.4269 34.6783 32.0916 32.8111 34.1174L31.8437 33.15C31.6437 32.95 31.3438 32.95 31.1437 33.15C30.9437 33.35 30.9437 33.65 31.1437 33.85L32.1111 34.8174C30.0853 36.6846 27.4206 37.8672 24.4937 37.9887V37C24.4937 36.7 24.2937 36.5 23.9937 36.5C23.6937 36.5 23.4938 36.7 23.4938 37V37.9887C20.5668 37.8672 17.9022 36.6846 15.8764 34.8174L16.8438 33.85C17.0437 33.6501 17.0437 33.3501 16.8438 33.15C16.6438 32.95 16.3438 32.95 16.1437 33.15L15.1764 34.1174C13.3092 32.0916 12.1266 29.4269 12.005 26.5H12.9938C13.2938 26.5 13.4938 26.3 13.4938 26C13.4938 25.7 13.2938 25.5001 12.9938 25.5001H12.005C12.1265 22.5731 13.3091 19.9085 15.1763 17.8827L16.1437 18.8501C16.2437 18.9501 16.3437 19.0001 16.4937 19.0001C16.6437 19.0001 16.7437 18.9501 16.8436 18.8501C17.0436 18.6501 17.0436 18.3501 16.8436 18.1501L15.8763 17.1827C17.7795 15.4284 20.2467 14.2785 22.9655 14.0449C22.9914 14.048 23.0175 14.0501 23.0436 14.0501C23.2023 14.0388 23.3503 14.0301 23.4936 14.0239V15.0001C23.4936 15.3001 23.6936 15.5001 23.9936 15.5001C24.2936 15.5001 24.4936 15.3001 24.4936 15.0001V14.0228C24.6502 14.0291 24.8146 14.0381 24.9936 14.05C25.0131 14.05 25.0317 14.0491 25.0496 14.0474C27.6125 14.2736 29.9508 15.3139 31.802 16.9071C31.9051 17.0073 32.0075 17.0999 32.1057 17.1879L31.1437 18.15C30.9437 18.35 30.9437 18.65 31.1437 18.85C31.2437 18.95 31.3437 19 31.4937 19C31.6437 19 31.7437 18.95 31.8437 18.85L32.8032 17.8905C32.8938 17.9913 32.9892 18.0955 33.0937 18.2C33.1128 18.2287 33.1343 18.2527 33.1568 18.2744C34.8235 20.2464 35.8685 22.7581 35.9824 25.4999H34.9937C34.6937 25.4999 34.4937 25.6999 34.4937 25.9999C34.4937 26.3 34.6937 26.5 34.9937 26.5ZM33.5437 17.2C33.5276 17.1839 33.5099 17.1662 33.4916 17.1479C33.4266 17.0782 33.3609 17.0093 33.2944 16.941C33.2699 16.8907 33.2367 16.843 33.1937 16.8C33.1538 16.76 33.1098 16.7284 33.0634 16.7045C33.0004 16.6324 32.9305 16.5579 32.8437 16.5L33.5437 15.7999L34.2438 16.5L33.5437 17.2ZM21.9937 10H25.9937V11H24.9937H22.9937H21.9937V10ZM23.4937 13V12H24.4937V13C24.3437 13 24.1437 13 23.9937 13C23.8437 13 23.6437 13 23.4937 13ZM12.2937 16.5C11.9437 16.1 11.9437 15.5 12.2937 15.15L13.0937 14.35C13.2437 14.15 13.4938 14.05 13.7437 14.05C13.9937 14.05 14.2437 14.15 14.3937 14.3L14.4437 14.45L14.3288 14.5649C14.244 14.5862 14.1629 14.6309 14.0937 14.7L12.6937 16.1001C12.6245 16.1692 12.5798 16.2504 12.5585 16.3352L12.3436 16.5501L12.2937 16.5ZM14.1019 16.0918L14.4437 15.75L15.1437 16.45C15.0437 16.55 14.8937 16.7 14.7938 16.8C14.6937 16.9 14.5437 16.9999 14.4438 17.1499L13.7438 16.4499L14.1019 16.0918Z" fill="#5669FF"/>
<path d="M24.4937 24.0637V17.5C24.4937 17.2 24.2937 17 23.9937 17C23.6937 17 23.4938 17.2 23.4938 17.5V24.0637C22.6336 24.2872 21.9938 25.0725 21.9938 26C21.9938 27.1 22.8938 28 23.9938 28C25.0938 28 25.9938 27.1 25.9938 26C25.9937 25.0724 25.3538 24.2872 24.4937 24.0637ZM23.9937 26.9999C23.4437 26.9999 22.9937 26.5499 22.9937 25.9999C22.9937 25.4499 23.4437 24.9999 23.9937 24.9999C24.5437 24.9999 24.9937 25.4499 24.9937 25.9999C24.9937 26.5499 24.5437 26.9999 23.9937 26.9999Z" fill="#5669FF"/>
</g>
<defs>
<clipPath id="clip0_813_2">
<rect width="30" height="30" fill="white" transform="translate(9 9)"/>
</clipPath>
</defs>
</svg>
