<svg width="24" height="24" viewBox="0 0 24 24" fill="none" xmlns="http://www.w3.org/2000/svg">
<g clip-path="url(#clip0_821_5)">
<path d="M22.2656 3.711H15.5117C15.3414 2.87211 14.8863 2.11791 14.2235 1.57618C13.5607 1.03446 12.731 0.738525 11.875 0.738525C11.019 0.738525 10.1893 1.03446 9.52653 1.57618C8.86374 2.11791 8.40862 2.87211 8.23828 3.711H1.48438C1.28753 3.711 1.09876 3.78919 0.959569 3.92838C0.820382 4.06756 0.742188 4.25634 0.742188 4.45318C0.742188 4.65002 0.820382 4.8388 0.959569 4.97799C1.09876 5.11718 1.28753 5.19537 1.48438 5.19537H22.2656C22.4625 5.19537 22.6512 5.11718 22.7904 4.97799C22.9296 4.8388 23.0078 4.65002 23.0078 4.45318C23.0078 4.25634 22.9296 4.06756 22.7904 3.92838C22.6512 3.78919 22.4625 3.711 22.2656 3.711ZM11.875 2.22662C12.3344 2.22791 12.7821 2.37126 13.1568 2.637C13.5315 2.90275 13.8148 3.27789 13.968 3.711H9.78203C9.93515 3.27789 10.2185 2.90275 10.5932 2.637C10.9679 2.37126 11.4156 2.22791 11.875 2.22662ZM19.5789 6.73912C19.4437 6.68228 19.2948 6.66676 19.1508 6.69449C19.0068 6.72223 18.8743 6.792 18.7699 6.89498C18.7011 6.96433 18.6467 7.04658 18.6098 7.137C18.5728 7.22743 18.5541 7.32426 18.5547 7.42193C18.5547 7.61877 18.6329 7.80755 18.7721 7.94674C18.9113 8.08593 19.1 8.16412 19.2969 8.16412C19.4937 8.16412 19.6825 8.08593 19.8217 7.94674C19.9609 7.80755 20.0391 7.61877 20.0391 7.42193C20.0363 7.22543 19.9595 7.03721 19.8238 6.89498C19.7532 6.82741 19.67 6.77444 19.5789 6.73912ZM19.2969 9.6485C19.1 9.6485 18.9113 9.72669 18.7721 9.86588C18.6329 10.0051 18.5547 10.1938 18.5547 10.3907V12.6172C18.5547 12.8141 18.6329 13.0029 18.7721 13.1421C18.9113 13.2812 19.1 13.3594 19.2969 13.3594C19.4937 13.3594 19.6825 13.2812 19.8217 13.1421C19.9609 13.0029 20.0391 12.8141 20.0391 12.6172V10.3907C20.0391 10.1938 19.9609 10.0051 19.8217 9.86588C19.6825 9.72669 19.4937 9.6485 19.2969 9.6485ZM19.2969 14.8438C19.1 14.8438 18.9113 14.922 18.7721 15.0612C18.6329 15.2004 18.5547 15.3892 18.5547 15.586V20.7813C18.5547 20.9781 18.4765 21.1669 18.3373 21.3061C18.1981 21.4453 18.0093 21.5235 17.8125 21.5235H5.9375C5.74066 21.5235 5.55188 21.4453 5.41269 21.3061C5.27351 21.1669 5.19531 20.9781 5.19531 20.7813V7.42193C5.19531 7.22509 5.11712 7.03631 4.97793 6.89713C4.83874 6.75794 4.64997 6.67975 4.45312 6.67975C4.25628 6.67975 4.06751 6.75794 3.92832 6.89713C3.78913 7.03631 3.71094 7.22509 3.71094 7.42193V20.7813C3.71094 21.3718 3.94552 21.9382 4.36308 22.3557C4.78064 22.7733 5.34698 23.0079 5.9375 23.0079H17.8125C18.403 23.0079 18.9694 22.7733 19.3869 22.3557C19.8045 21.9382 20.0391 21.3718 20.0391 20.7813V15.586C20.0391 15.3892 19.9609 15.2004 19.8217 15.0612C19.6825 14.922 19.4937 14.8438 19.2969 14.8438Z" fill="white"/>
<path d="M8.90625 17.8125V8.16406C8.90625 7.96722 8.82806 7.77844 8.68887 7.63926C8.54968 7.50007 8.3609 7.42188 8.16406 7.42188C7.96722 7.42188 7.77844 7.50007 7.63926 7.63926C7.50007 7.77844 7.42188 7.96722 7.42188 8.16406V17.8125C7.42188 18.0093 7.50007 18.1981 7.63926 18.3373C7.77844 18.4765 7.96722 18.5547 8.16406 18.5547C8.3609 18.5547 8.54968 18.4765 8.68887 18.3373C8.82806 18.1981 8.90625 18.0093 8.90625 17.8125ZM12.6172 17.8125V8.16406C12.6172 7.96722 12.539 7.77844 12.3998 7.63926C12.2606 7.50007 12.0718 7.42188 11.875 7.42188C11.6782 7.42188 11.4894 7.50007 11.3502 7.63926C11.211 7.77844 11.1328 7.96722 11.1328 8.16406V17.8125C11.1328 18.0093 11.211 18.1981 11.3502 18.3373C11.4894 18.4765 11.6782 18.5547 11.875 18.5547C12.0718 18.5547 12.2606 18.4765 12.3998 18.3373C12.539 18.1981 12.6172 18.0093 12.6172 17.8125ZM16.3281 17.8125V8.16406C16.3281 7.96722 16.2499 7.77844 16.1107 7.63926C15.9716 7.50007 15.7828 7.42188 15.5859 7.42188C15.3891 7.42188 15.2003 7.50007 15.0611 7.63926C14.9219 7.77844 14.8438 7.96722 14.8438 8.16406V17.8125C14.8438 18.0093 14.9219 18.1981 15.0611 18.3373C15.2003 18.4765 15.3891 18.5547 15.5859 18.5547C15.7828 18.5547 15.9716 18.4765 16.1107 18.3373C16.2499 18.1981 16.3281 18.0093 16.3281 17.8125Z" fill="white"/>
</g>
<defs>
<clipPath id="clip0_821_5">
<rect width="23.75" height="23.75" fill="white"/>
</clipPath>
</defs>
</svg>
